{
	"patcher" : 	{
		"fileversion" : 1,
		"appversion" : 		{
			"major" : 8,
			"minor" : 6,
			"revision" : 4,
			"architecture" : "x64",
			"modernui" : 1
		}
,
		"classnamespace" : "box",
		"rect" : [ 565.0, 272.0, 640.0, 480.0 ],
		"bglocked" : 0,
		"openinpresentation" : 0,
		"default_fontsize" : 12.0,
		"default_fontface" : 0,
		"default_fontname" : "Arial",
		"gridonopen" : 1,
		"gridsize" : [ 15.0, 15.0 ],
		"gridsnaponopen" : 1,
		"objectsnaponopen" : 1,
		"statusbarvisible" : 2,
		"toolbarvisible" : 1,
		"lefttoolbarpinned" : 0,
		"toptoolbarpinned" : 0,
		"righttoolbarpinned" : 0,
		"bottomtoolbarpinned" : 0,
		"toolbars_unpinned_last_save" : 0,
		"tallnewobj" : 0,
		"boxanimatetime" : 200,
		"enablehscroll" : 1,
		"enablevscroll" : 1,
		"devicewidth" : 0.0,
		"description" : "",
		"digest" : "",
		"tags" : "",
		"style" : "",
		"subpatcher_template" : "",
		"assistshowspatchername" : 0,
		"boxes" : [ 			{
				"box" : 				{
					"format" : 6,
					"id" : "obj-29",
					"maxclass" : "flonum",
					"numinlets" : 1,
					"numoutlets" : 2,
					"outlettype" : [ "", "bang" ],
					"parameter_enable" : 0,
					"patching_rect" : [ 560.0, 219.0, 50.0, 22.0 ]
				}

			}
, 			{
				"box" : 				{
					"format" : 6,
					"id" : "obj-26",
					"maxclass" : "flonum",
					"numinlets" : 1,
					"numoutlets" : 2,
					"outlettype" : [ "", "bang" ],
					"parameter_enable" : 0,
					"patching_rect" : [ 561.0, 85.0, 50.0, 22.0 ]
				}

			}
, 			{
				"box" : 				{
					"format" : 6,
					"id" : "obj-23",
					"maxclass" : "flonum",
					"numinlets" : 1,
					"numoutlets" : 2,
					"outlettype" : [ "", "bang" ],
					"parameter_enable" : 0,
					"patching_rect" : [ 363.0, 57.0, 50.0, 22.0 ]
				}

			}
, 			{
				"box" : 				{
					"id" : "obj-21",
					"maxclass" : "newobj",
					"numinlets" : 1,
					"numoutlets" : 3,
					"outlettype" : [ "int", "int", "int" ],
					"patching_rect" : [ 339.5, 13.0, 40.0, 22.0 ],
					"text" : "ctlin"
				}

			}
, 			{
				"box" : 				{
					"id" : "obj-18",
					"maxclass" : "number",
					"numinlets" : 1,
					"numoutlets" : 2,
					"outlettype" : [ "", "bang" ],
					"parameter_enable" : 0,
					"patching_rect" : [ 197.0, 39.0, 50.0, 22.0 ]
				}

			}
, 			{
				"box" : 				{
					"id" : "obj-1",
					"maxclass" : "newobj",
					"numinlets" : 1,
					"numoutlets" : 5,
					"outlettype" : [ "int", "bang", "bang", "bang", "bang" ],
					"patching_rect" : [ 197.0, 78.0, 61.0, 22.0 ],
					"text" : "t i b b b b"
				}

			}
, 			{
				"box" : 				{
					"id" : "obj-13",
					"maxclass" : "toggle",
					"numinlets" : 1,
					"numoutlets" : 1,
					"outlettype" : [ "int" ],
					"parameter_enable" : 0,
					"patching_rect" : [ 499.0, 112.0, 24.0, 24.0 ]
				}

			}
, 			{
				"box" : 				{
					"autosave" : 1,
					"id" : "obj-52",
					"inletInfo" : 					{
						"IOInfo" : [ 							{
								"type" : "midi",
								"index" : -1,
								"tag" : "",
								"comment" : ""
							}
 ]
					}
,
					"maxclass" : "newobj",
					"numinlets" : 2,
					"numoutlets" : 2,
					"outletInfo" : 					{
						"IOInfo" : [ 							{
								"type" : "midi",
								"index" : -1,
								"tag" : "",
								"comment" : ""
							}
 ]
					}
,
					"outlettype" : [ "int", "list" ],
					"patcher" : 					{
						"fileversion" : 1,
						"appversion" : 						{
							"major" : 8,
							"minor" : 6,
							"revision" : 4,
							"architecture" : "x64",
							"modernui" : 1
						}
,
						"classnamespace" : "rnbo",
						"rect" : [ 473.0, 522.0, 640.0, 492.0 ],
						"bglocked" : 0,
						"openinpresentation" : 0,
						"default_fontsize" : 12.0,
						"default_fontface" : 0,
						"default_fontname" : "Lato",
						"gridonopen" : 1,
						"gridsize" : [ 15.0, 15.0 ],
						"gridsnaponopen" : 1,
						"objectsnaponopen" : 1,
						"statusbarvisible" : 2,
						"toolbarvisible" : 1,
						"lefttoolbarpinned" : 0,
						"toptoolbarpinned" : 0,
						"righttoolbarpinned" : 0,
						"bottomtoolbarpinned" : 0,
						"toolbars_unpinned_last_save" : 0,
						"tallnewobj" : 0,
						"boxanimatetime" : 200,
						"enablehscroll" : 1,
						"enablevscroll" : 1,
						"devicewidth" : 0.0,
						"description" : "",
						"digest" : "",
						"tags" : "",
						"style" : "",
						"subpatcher_template" : "",
						"assistshowspatchername" : 0,
						"title" : "untitled",
						"boxes" : [ 							{
								"box" : 								{
									"id" : "obj-37",
									"maxclass" : "newobj",
									"numinlets" : 1,
									"numoutlets" : 3,
									"outlettype" : [ "", "", "" ],
									"patching_rect" : [ 209.0, 76.0, 63.0, 23.0 ],
									"rnbo_classname" : "change",
									"rnbo_extra_attributes" : 									{
										"mode" : "default"
									}
,
									"rnbo_serial" : 1,
									"rnbo_uniqueid" : "change_obj-37",
									"text" : "change -1."
								}

							}
, 							{
								"box" : 								{
									"id" : "obj-36",
									"maxclass" : "newobj",
									"numinlets" : 1,
									"numoutlets" : 1,
									"outlettype" : [ "" ],
									"patching_rect" : [ 199.0, 14.0, 40.0, 23.0 ],
									"rnbo_classname" : "midiin",
									"rnbo_serial" : 1,
									"rnbo_uniqueid" : "midiin_obj-36",
									"text" : "midiin"
								}

							}
, 							{
								"box" : 								{
									"id" : "obj-34",
									"maxclass" : "newobj",
									"numinlets" : 1,
									"numoutlets" : 1,
									"outlettype" : [ "" ],
									"patching_rect" : [ 232.0, 284.0, 67.0, 23.0 ],
									"rnbo_classname" : "loadmess",
									"rnbo_serial" : 1,
									"rnbo_uniqueid" : "loadmess_obj-34",
									"rnboinfo" : 									{
										"needsInstanceInfo" : 1,
										"argnames" : 										{
											"input" : 											{
												"attrOrProp" : 1,
												"digest" : "Bang to trigger message.",
												"isalias" : 0,
												"aliases" : [  ],
												"settable" : 0,
												"attachable" : 0,
												"isparam" : 0,
												"deprecated" : 0,
												"inlet" : 1,
												"type" : "bang"
											}
,
											"message" : 											{
												"attrOrProp" : 1,
												"digest" : "Message when patcher is loaded.",
												"defaultarg" : 1,
												"isalias" : 0,
												"aliases" : [  ],
												"settable" : 1,
												"attachable" : 0,
												"isparam" : 0,
												"deprecated" : 0,
												"outlet" : 1,
												"type" : "list",
												"defaultValue" : ""
											}
,
											"startupbang" : 											{
												"attrOrProp" : 1,
												"digest" : "startupbang",
												"isalias" : 0,
												"aliases" : [  ],
												"attachable" : 0,
												"isparam" : 0,
												"deprecated" : 0,
												"type" : "bang"
											}

										}
,
										"inputs" : [ 											{
												"name" : "input",
												"type" : "bang",
												"digest" : "Bang to trigger message.",
												"hot" : 1,
												"docked" : 0
											}
 ],
										"outputs" : [ 											{
												"name" : "message",
												"type" : "list",
												"digest" : "Message when patcher is loaded.",
												"defaultarg" : 1,
												"docked" : 0
											}
 ],
										"helpname" : "loadmess",
										"aliasOf" : "loadmess",
										"classname" : "loadmess",
										"operator" : 0,
										"versionId" : -361086158,
										"changesPatcherIO" : 0
									}
,
									"text" : "loadmess 1"
								}

							}
, 							{
								"box" : 								{
									"id" : "obj-25",
									"maxclass" : "newobj",
									"numinlets" : 1,
									"numoutlets" : 1,
									"outlettype" : [ "" ],
									"patching_rect" : [ 283.0, 23.0, 56.0, 23.0 ],
									"rnbo_classname" : "loadbang",
									"rnbo_serial" : 1,
									"rnbo_uniqueid" : "loadbang_obj-25",
									"text" : "loadbang"
								}

							}
, 							{
								"box" : 								{
									"id" : "obj-24",
									"maxclass" : "message",
									"numinlets" : 2,
									"numoutlets" : 1,
									"outlettype" : [ "" ],
									"patching_rect" : [ 283.0, 61.0, 29.5, 23.0 ],
									"rnbo_classname" : "message",
									"rnbo_extra_attributes" : 									{
										"text" : ""
									}
,
									"rnbo_serial" : 1,
									"rnbo_uniqueid" : "message_obj-24",
									"text" : "-1"
								}

							}
, 							{
								"box" : 								{
									"id" : "obj-22",
									"maxclass" : "newobj",
									"numinlets" : 1,
									"numoutlets" : 0,
									"patching_rect" : [ 362.25, 148.0, 53.0, 23.0 ],
									"rnbo_classname" : "s",
									"rnbo_serial" : 1,
									"rnbo_uniqueid" : "s_obj-22",
									"text" : "s integra"
								}

							}
, 							{
								"box" : 								{
									"id" : "obj-21",
									"maxclass" : "newobj",
									"numinlets" : 1,
									"numoutlets" : 0,
									"patching_rect" : [ 423.0, 148.0, 72.0, 23.0 ],
									"rnbo_classname" : "s",
									"rnbo_serial" : 2,
									"rnbo_uniqueid" : "s_obj-21",
									"text" : "s midiOrgan"
								}

							}
, 							{
								"box" : 								{
									"id" : "obj-17",
									"maxclass" : "newobj",
									"numinlets" : 0,
									"numoutlets" : 1,
									"outlettype" : [ "" ],
									"patching_rect" : [ 41.0, 61.0, 71.0, 23.0 ],
									"rnbo_classname" : "r",
									"rnbo_serial" : 1,
									"rnbo_uniqueid" : "r_obj-17",
									"text" : "r midiOrgan"
								}

							}
, 							{
								"box" : 								{
									"id" : "obj-15",
									"maxclass" : "newobj",
									"numinlets" : 1,
									"numoutlets" : 0,
									"patching_rect" : [ 505.0, 148.0, 78.0, 23.0 ],
									"rnbo_classname" : "s",
									"rnbo_serial" : 3,
									"rnbo_uniqueid" : "s_obj-15",
									"text" : "s midiControl"
								}

							}
, 							{
								"box" : 								{
									"id" : "obj-14",
									"maxclass" : "newobj",
									"numinlets" : 3,
									"numoutlets" : 3,
									"outlettype" : [ "", "", "" ],
									"patching_rect" : [ 199.0, 50.0, 40.0, 23.0 ],
									"rnbo_classname" : "ctlin",
									"rnbo_serial" : 1,
									"rnbo_uniqueid" : "ctlin_obj-14",
									"text" : "ctlin"
								}

							}
, 							{
								"box" : 								{
									"id" : "obj-13",
									"maxclass" : "newobj",
									"numinlets" : 2,
									"numoutlets" : 1,
									"outlettype" : [ "" ],
									"patching_rect" : [ 199.0, 109.0, 30.0, 23.0 ],
									"rnbo_classname" : "-",
									"rnbo_extra_attributes" : 									{
										"hot" : 0
									}
,
									"rnbo_serial" : 1,
									"rnbo_uniqueid" : "-_obj-13",
									"text" : "- 32"
								}

							}
, 							{
								"box" : 								{
									"id" : "obj-10",
									"maxclass" : "newobj",
									"numinlets" : 0,
									"numoutlets" : 1,
									"outlettype" : [ "" ],
									"patching_rect" : [ 472.0, 288.0, 52.0, 23.0 ],
									"rnbo_classname" : "r",
									"rnbo_serial" : 2,
									"rnbo_uniqueid" : "r_obj-10",
									"text" : "r integra"
								}

							}
, 							{
								"box" : 								{
									"id" : "obj-6",
									"maxclass" : "newobj",
									"numinlets" : 1,
									"numoutlets" : 0,
									"patching_rect" : [ 41.0, 143.0, 60.0, 23.0 ],
									"rnbo_classname" : "s",
									"rnbo_serial" : 4,
									"rnbo_uniqueid" : "s_obj-6",
									"text" : "s midiOut"
								}

							}
, 							{
								"box" : 								{
									"id" : "obj-5",
									"maxclass" : "newobj",
									"numinlets" : 1,
									"numoutlets" : 1,
									"outlettype" : [ "" ],
									"patching_rect" : [ 41.0, 98.0, 40.0, 23.0 ],
									"rnbo_classname" : "midiin",
									"rnbo_serial" : 2,
									"rnbo_uniqueid" : "midiin_obj-5",
									"text" : "midiin"
								}

							}
, 							{
								"box" : 								{
									"id" : "obj-4",
									"maxclass" : "newobj",
									"numinlets" : 2,
									"numoutlets" : 0,
									"patching_rect" : [ 66.0, 434.0, 49.0, 23.0 ],
									"rnbo_classname" : "midiout",
									"rnbo_serial" : 1,
									"rnbo_uniqueid" : "midiout_obj-4",
									"text" : "midiout"
								}

							}
, 							{
								"box" : 								{
									"id" : "obj-3",
									"maxclass" : "newobj",
									"numinlets" : 0,
									"numoutlets" : 1,
									"outlettype" : [ "" ],
									"patching_rect" : [ 66.0, 379.0, 58.0, 23.0 ],
									"rnbo_classname" : "r",
									"rnbo_serial" : 3,
									"rnbo_uniqueid" : "r_obj-3",
									"text" : "r midiOut"
								}

							}
, 							{
								"box" : 								{
									"id" : "obj-2",
									"maxclass" : "newobj",
									"numinlets" : 1,
									"numoutlets" : 0,
									"patching_rect" : [ 199.0, 389.0, 60.0, 23.0 ],
									"rnbo_classname" : "s",
									"rnbo_serial" : 5,
									"rnbo_uniqueid" : "s_obj-2",
									"text" : "s midiOut"
								}

							}
, 							{
								"box" : 								{
									"id" : "obj-20",
									"maxclass" : "message",
									"numinlets" : 2,
									"numoutlets" : 1,
									"outlettype" : [ "" ],
									"patching_rect" : [ 423.0, 280.0, 29.5, 23.0 ],
									"rnbo_classname" : "message",
									"rnbo_extra_attributes" : 									{
										"text" : "16"
									}
,
									"rnbo_serial" : 2,
									"rnbo_uniqueid" : "message_obj-20",
									"text" : "16"
								}

							}
, 							{
								"box" : 								{
									"id" : "obj-18",
									"maxclass" : "flonum",
									"numinlets" : 1,
									"numoutlets" : 1,
									"outlettype" : [ "" ],
									"parameter_enable" : 0,
									"patching_rect" : [ 199.0, 143.0, 50.0, 23.0 ],
									"rnbo_classname" : "number",
									"rnbo_extra_attributes" : 									{
										"maximum" : "<none>",
										"minimum" : "<none>",
										"preset" : 0,
										"order" : "",
										"initialFormat" : "float"
									}
,
									"rnbo_serial" : 1,
									"rnbo_uniqueid" : "number_obj-18"
								}

							}
, 							{
								"box" : 								{
									"id" : "obj-1",
									"maxclass" : "newobj",
									"numinlets" : 1,
									"numoutlets" : 5,
									"outlettype" : [ "", "", "", "", "" ],
									"patching_rect" : [ 199.0, 182.0, 61.0, 23.0 ],
									"rnbo_classname" : "t",
									"rnbo_serial" : 1,
									"rnbo_uniqueid" : "t_obj-1",
									"rnboinfo" : 									{
										"needsInstanceInfo" : 1,
										"argnames" : 										{
											"out1" : 											{
												"attrOrProp" : 1,
												"digest" : "Output order 5 (number).",
												"defaultarg" : 1,
												"isalias" : 0,
												"aliases" : [  ],
												"attachable" : 0,
												"isparam" : 0,
												"deprecated" : 0,
												"outlet" : 1,
												"type" : "number"
											}
,
											"out2" : 											{
												"attrOrProp" : 1,
												"digest" : "Output order 4 (bang).",
												"defaultarg" : 2,
												"isalias" : 0,
												"aliases" : [  ],
												"attachable" : 0,
												"isparam" : 0,
												"deprecated" : 0,
												"outlet" : 1,
												"type" : "bang"
											}
,
											"out3" : 											{
												"attrOrProp" : 1,
												"digest" : "Output order 3 (bang).",
												"defaultarg" : 3,
												"isalias" : 0,
												"aliases" : [  ],
												"attachable" : 0,
												"isparam" : 0,
												"deprecated" : 0,
												"outlet" : 1,
												"type" : "bang"
											}
,
											"out4" : 											{
												"attrOrProp" : 1,
												"digest" : "Output order 2 (bang).",
												"defaultarg" : 4,
												"isalias" : 0,
												"aliases" : [  ],
												"attachable" : 0,
												"isparam" : 0,
												"deprecated" : 0,
												"outlet" : 1,
												"type" : "bang"
											}
,
											"out5" : 											{
												"attrOrProp" : 1,
												"digest" : "Output order 1 (bang).",
												"defaultarg" : 5,
												"isalias" : 0,
												"aliases" : [  ],
												"attachable" : 0,
												"isparam" : 0,
												"deprecated" : 0,
												"outlet" : 1,
												"type" : "bang"
											}
,
											"triggers" : 											{
												"attrOrProp" : 2,
												"digest" : "The number of arguments determines the number of outlets. \t\t\t\t\t\tEach outlet sends out either a whole number, float, bang or list, \t\t\t\t\t\tas identified by symbol arguments (i, f, b, l). \t\t\t\t\t\tIf there are no arguments, there are two outlets, both of which send a float.",
												"defaultarg" : 1,
												"isalias" : 0,
												"aliases" : [  ],
												"settable" : 1,
												"attachable" : 0,
												"isparam" : 0,
												"deprecated" : 0,
												"type" : "list"
											}

										}
,
										"inputs" : [ 											{
												"name" : "input",
												"type" : [ "bang", "number", "list" ],
												"digest" : "input to distribute",
												"hot" : 1,
												"docked" : 0
											}
 ],
										"outputs" : [ 											{
												"name" : "out1",
												"type" : "number",
												"digest" : "Output order 5 (number).",
												"defaultarg" : 1,
												"docked" : 0
											}
, 											{
												"name" : "out2",
												"type" : "bang",
												"digest" : "Output order 4 (bang).",
												"defaultarg" : 2,
												"docked" : 0
											}
, 											{
												"name" : "out3",
												"type" : "bang",
												"digest" : "Output order 3 (bang).",
												"defaultarg" : 3,
												"docked" : 0
											}
, 											{
												"name" : "out4",
												"type" : "bang",
												"digest" : "Output order 2 (bang).",
												"defaultarg" : 4,
												"docked" : 0
											}
, 											{
												"name" : "out5",
												"type" : "bang",
												"digest" : "Output order 1 (bang).",
												"defaultarg" : 5,
												"docked" : 0
											}
 ],
										"helpname" : "trigger",
										"aliasOf" : "trigger",
										"classname" : "t",
										"operator" : 0,
										"versionId" : -1133428571,
										"changesPatcherIO" : 0
									}
,
									"text" : "t i b b b b"
								}

							}
, 							{
								"box" : 								{
									"id" : "obj-49",
									"maxclass" : "message",
									"numinlets" : 2,
									"numoutlets" : 1,
									"outlettype" : [ "" ],
									"patching_rect" : [ 352.0, 304.0, 29.5, 23.0 ],
									"rnbo_classname" : "message",
									"rnbo_extra_attributes" : 									{
										"text" : "0"
									}
,
									"rnbo_serial" : 3,
									"rnbo_uniqueid" : "message_obj-49",
									"text" : "0"
								}

							}
, 							{
								"box" : 								{
									"id" : "obj-47",
									"maxclass" : "message",
									"numinlets" : 2,
									"numoutlets" : 1,
									"outlettype" : [ "" ],
									"patching_rect" : [ 259.0, 264.0, 29.5, 23.0 ],
									"rnbo_classname" : "message",
									"rnbo_extra_attributes" : 									{
										"text" : "85"
									}
,
									"rnbo_serial" : 4,
									"rnbo_uniqueid" : "message_obj-47",
									"text" : "85"
								}

							}
, 							{
								"box" : 								{
									"id" : "obj-43",
									"maxclass" : "message",
									"numinlets" : 2,
									"numoutlets" : 1,
									"outlettype" : [ "" ],
									"patching_rect" : [ 313.0, 264.0, 29.5, 23.0 ],
									"rnbo_classname" : "message",
									"rnbo_extra_attributes" : 									{
										"text" : "0"
									}
,
									"rnbo_serial" : 5,
									"rnbo_uniqueid" : "message_obj-43",
									"text" : "0"
								}

							}
, 							{
								"box" : 								{
									"id" : "obj-41",
									"maxclass" : "message",
									"numinlets" : 2,
									"numoutlets" : 1,
									"outlettype" : [ "" ],
									"patching_rect" : [ 374.0, 280.0, 29.5, 23.0 ],
									"rnbo_classname" : "message",
									"rnbo_extra_attributes" : 									{
										"text" : "32"
									}
,
									"rnbo_serial" : 6,
									"rnbo_uniqueid" : "message_obj-41",
									"text" : "32"
								}

							}
, 							{
								"box" : 								{
									"id" : "obj-28",
									"maxclass" : "newobj",
									"numinlets" : 4,
									"numoutlets" : 1,
									"outlettype" : [ "" ],
									"patching_rect" : [ 401.0, 342.0, 90.0, 23.0 ],
									"rnbo_classname" : "ctlout",
									"rnbo_serial" : 1,
									"rnbo_uniqueid" : "ctlout_obj-28",
									"text" : "ctlout"
								}

							}
, 							{
								"box" : 								{
									"id" : "obj-19",
									"maxclass" : "newobj",
									"numinlets" : 4,
									"numoutlets" : 1,
									"outlettype" : [ "" ],
									"patching_rect" : [ 296.0, 342.0, 85.5, 23.0 ],
									"rnbo_classname" : "ctlout",
									"rnbo_serial" : 2,
									"rnbo_uniqueid" : "ctlout_obj-19",
									"text" : "ctlout"
								}

							}
, 							{
								"box" : 								{
									"id" : "obj-9",
									"maxclass" : "newobj",
									"numinlets" : 3,
									"numoutlets" : 1,
									"outlettype" : [ "" ],
									"patching_rect" : [ 199.0, 342.0, 49.0, 23.0 ],
									"rnbo_classname" : "pgmout",
									"rnbo_serial" : 1,
									"rnbo_uniqueid" : "pgmout_obj-9",
									"text" : "pgmout"
								}

							}
 ],
						"lines" : [ 							{
								"patchline" : 								{
									"destination" : [ "obj-20", 0 ],
									"source" : [ "obj-1", 4 ]
								}

							}
, 							{
								"patchline" : 								{
									"destination" : [ "obj-41", 0 ],
									"order" : 0,
									"source" : [ "obj-1", 3 ]
								}

							}
, 							{
								"patchline" : 								{
									"destination" : [ "obj-43", 0 ],
									"order" : 1,
									"source" : [ "obj-1", 3 ]
								}

							}
, 							{
								"patchline" : 								{
									"destination" : [ "obj-47", 0 ],
									"source" : [ "obj-1", 2 ]
								}

							}
, 							{
								"patchline" : 								{
									"destination" : [ "obj-49", 0 ],
									"source" : [ "obj-1", 1 ]
								}

							}
, 							{
								"patchline" : 								{
									"destination" : [ "obj-9", 0 ],
									"source" : [ "obj-1", 0 ]
								}

							}
, 							{
								"patchline" : 								{
									"destination" : [ "obj-19", 3 ],
									"order" : 1,
									"source" : [ "obj-10", 0 ]
								}

							}
, 							{
								"patchline" : 								{
									"destination" : [ "obj-28", 3 ],
									"order" : 0,
									"source" : [ "obj-10", 0 ]
								}

							}
, 							{
								"patchline" : 								{
									"destination" : [ "obj-9", 2 ],
									"order" : 2,
									"source" : [ "obj-10", 0 ]
								}

							}
, 							{
								"patchline" : 								{
									"destination" : [ "obj-18", 0 ],
									"source" : [ "obj-13", 0 ]
								}

							}
, 							{
								"patchline" : 								{
									"destination" : [ "obj-37", 0 ],
									"source" : [ "obj-14", 1 ]
								}

							}
, 							{
								"patchline" : 								{
									"destination" : [ "obj-5", 0 ],
									"source" : [ "obj-17", 0 ]
								}

							}
, 							{
								"patchline" : 								{
									"destination" : [ "obj-1", 0 ],
									"source" : [ "obj-18", 0 ]
								}

							}
, 							{
								"patchline" : 								{
									"destination" : [ "obj-2", 0 ],
									"source" : [ "obj-19", 0 ]
								}

							}
, 							{
								"patchline" : 								{
									"destination" : [ "obj-19", 2 ],
									"order" : 1,
									"source" : [ "obj-20", 0 ]
								}

							}
, 							{
								"patchline" : 								{
									"destination" : [ "obj-28", 2 ],
									"order" : 0,
									"source" : [ "obj-20", 0 ]
								}

							}
, 							{
								"patchline" : 								{
									"destination" : [ "obj-9", 1 ],
									"order" : 2,
									"source" : [ "obj-20", 0 ]
								}

							}
, 							{
								"patchline" : 								{
									"destination" : [ "obj-14", 2 ],
									"source" : [ "obj-24", 0 ]
								}

							}
, 							{
								"patchline" : 								{
									"destination" : [ "obj-24", 0 ],
									"source" : [ "obj-25", 0 ]
								}

							}
, 							{
								"patchline" : 								{
									"destination" : [ "obj-2", 0 ],
									"source" : [ "obj-28", 0 ]
								}

							}
, 							{
								"patchline" : 								{
									"destination" : [ "obj-4", 0 ],
									"source" : [ "obj-3", 0 ]
								}

							}
, 							{
								"patchline" : 								{
									"destination" : [ "obj-14", 0 ],
									"source" : [ "obj-36", 0 ]
								}

							}
, 							{
								"patchline" : 								{
									"destination" : [ "obj-13", 0 ],
									"source" : [ "obj-37", 0 ]
								}

							}
, 							{
								"patchline" : 								{
									"destination" : [ "obj-28", 1 ],
									"source" : [ "obj-41", 0 ]
								}

							}
, 							{
								"patchline" : 								{
									"destination" : [ "obj-19", 1 ],
									"source" : [ "obj-43", 0 ]
								}

							}
, 							{
								"patchline" : 								{
									"destination" : [ "obj-19", 0 ],
									"source" : [ "obj-47", 0 ]
								}

							}
, 							{
								"patchline" : 								{
									"destination" : [ "obj-28", 0 ],
									"source" : [ "obj-49", 0 ]
								}

							}
, 							{
								"patchline" : 								{
									"destination" : [ "obj-6", 0 ],
									"source" : [ "obj-5", 0 ]
								}

							}
, 							{
								"patchline" : 								{
									"destination" : [ "obj-2", 0 ],
									"source" : [ "obj-9", 0 ]
								}

							}
 ],
						"default_bgcolor" : [ 0.031372549019608, 0.125490196078431, 0.211764705882353, 1.0 ],
						"color" : [ 0.929412, 0.929412, 0.352941, 1.0 ],
						"elementcolor" : [ 0.357540726661682, 0.515565991401672, 0.861786782741547, 1.0 ],
						"accentcolor" : [ 0.343034118413925, 0.506230533123016, 0.86220508813858, 1.0 ],
						"stripecolor" : [ 0.258338063955307, 0.352425158023834, 0.511919498443604, 1.0 ],
						"bgfillcolor_type" : "color",
						"bgfillcolor_color" : [ 0.031372549019608, 0.125490196078431, 0.211764705882353, 1.0 ],
						"bgfillcolor_color1" : [ 0.031372549019608, 0.125490196078431, 0.211764705882353, 1.0 ],
						"bgfillcolor_color2" : [ 0.263682, 0.004541, 0.038797, 1.0 ],
						"bgfillcolor_angle" : 270.0,
						"bgfillcolor_proportion" : 0.39,
						"bgfillcolor_autogradient" : 0.0
					}
,
					"patching_rect" : [ 589.0, 430.0, 40.0, 22.0 ],
					"rnboattrcache" : 					{

					}
,
					"rnboversion" : "1.3.3",
					"saved_attribute_attributes" : 					{
						"valueof" : 						{
							"parameter_invisible" : 1,
							"parameter_longname" : "rnbo~",
							"parameter_modmode" : 0,
							"parameter_shortname" : "rnbo~",
							"parameter_type" : 3
						}

					}
,
					"saved_object_attributes" : 					{
						"optimization" : "O1",
						"parameter_enable" : 1,
						"uuid" : "5041de33-e1cb-11ef-9e33-2606549c7285"
					}
,
					"snapshot" : 					{
						"filetype" : "C74Snapshot",
						"version" : 2,
						"minorversion" : 0,
						"name" : "snapshotlist",
						"origin" : "rnbo~",
						"type" : "list",
						"subtype" : "Undefined",
						"embed" : 1,
						"snapshot" : 						{
							"__presetid" : "5041de33-e1cb-11ef-9e33-2606549c7285"
						}
,
						"snapshotlist" : 						{
							"current_snapshot" : 0,
							"entries" : [ 								{
									"filetype" : "C74Snapshot",
									"version" : 2,
									"minorversion" : 0,
									"name" : "untitled",
									"origin" : "5041de33-e1cb-11ef-9e33-2606549c7285",
									"type" : "rnbo",
									"subtype" : "",
									"embed" : 0,
									"snapshot" : 									{
										"__presetid" : "5041de33-e1cb-11ef-9e33-2606549c7285"
									}
,
									"fileref" : 									{
										"name" : "untitled",
										"filename" : "untitled.maxsnap",
										"filepath" : "~/Documents/Max 8/Snapshots",
										"filepos" : -1,
										"snapshotfileid" : "fb9f613c27ea33c2b4324b60b9853e4b"
									}

								}
 ]
						}

					}
,
					"text" : "rnbo~",
					"varname" : "rnbo~"
				}

			}
, 			{
				"box" : 				{
					"id" : "obj-49",
					"maxclass" : "message",
					"numinlets" : 2,
					"numoutlets" : 1,
					"outlettype" : [ "" ],
					"patching_rect" : [ 350.0, 188.0, 29.5, 22.0 ],
					"text" : "0"
				}

			}
, 			{
				"box" : 				{
					"id" : "obj-47",
					"maxclass" : "message",
					"numinlets" : 2,
					"numoutlets" : 1,
					"outlettype" : [ "" ],
					"patching_rect" : [ 228.5, 160.0, 29.5, 22.0 ],
					"text" : "85"
				}

			}
, 			{
				"box" : 				{
					"id" : "obj-44",
					"maxclass" : "newobj",
					"numinlets" : 1,
					"numoutlets" : 4,
					"outlettype" : [ "bang", "bang", "bang", "bang" ],
					"patching_rect" : [ 409.0, 131.0, 52.0, 22.0 ],
					"text" : "t b b b b"
				}

			}
, 			{
				"box" : 				{
					"id" : "obj-43",
					"maxclass" : "message",
					"numinlets" : 2,
					"numoutlets" : 1,
					"outlettype" : [ "" ],
					"patching_rect" : [ 269.0, 160.0, 29.5, 22.0 ],
					"text" : "0"
				}

			}
, 			{
				"box" : 				{
					"id" : "obj-41",
					"maxclass" : "message",
					"numinlets" : 2,
					"numoutlets" : 1,
					"outlettype" : [ "" ],
					"patching_rect" : [ 383.5, 188.0, 29.5, 22.0 ],
					"text" : "32"
				}

			}
, 			{
				"box" : 				{
					"id" : "obj-28",
					"maxclass" : "newobj",
					"numinlets" : 3,
					"numoutlets" : 0,
					"patching_rect" : [ 361.0, 293.0, 40.0, 22.0 ],
					"text" : "ctlout"
				}

			}
, 			{
				"box" : 				{
					"id" : "obj-25",
					"maxclass" : "message",
					"numinlets" : 2,
					"numoutlets" : 1,
					"outlettype" : [ "" ],
					"patching_rect" : [ 396.0, 222.0, 29.5, 22.0 ],
					"text" : "16"
				}

			}
, 			{
				"box" : 				{
					"id" : "obj-19",
					"maxclass" : "newobj",
					"numinlets" : 3,
					"numoutlets" : 0,
					"patching_rect" : [ 264.0, 242.0, 40.0, 22.0 ],
					"text" : "ctlout"
				}

			}
, 			{
				"box" : 				{
					"id" : "obj-16",
					"maxclass" : "number",
					"numinlets" : 1,
					"numoutlets" : 2,
					"outlettype" : [ "", "bang" ],
					"parameter_enable" : 0,
					"patching_rect" : [ 430.0, 363.0, 50.0, 22.0 ]
				}

			}
, 			{
				"box" : 				{
					"id" : "obj-12",
					"maxclass" : "newobj",
					"numinlets" : 2,
					"numoutlets" : 1,
					"outlettype" : [ "" ],
					"patching_rect" : [ 476.0, 399.0, 46.0, 22.0 ],
					"text" : "pack i i"
				}

			}
, 			{
				"box" : 				{
					"id" : "obj-11",
					"maxclass" : "newobj",
					"numinlets" : 7,
					"numoutlets" : 2,
					"outlettype" : [ "int", "" ],
					"patching_rect" : [ 361.0, 411.0, 82.0, 22.0 ],
					"text" : "midiformat"
				}

			}
, 			{
				"box" : 				{
					"id" : "obj-10",
					"maxclass" : "newobj",
					"numinlets" : 1,
					"numoutlets" : 0,
					"patching_rect" : [ 361.0, 443.0, 47.0, 22.0 ],
					"text" : "midiout"
				}

			}
, 			{
				"box" : 				{
					"id" : "obj-9",
					"maxclass" : "newobj",
					"numinlets" : 2,
					"numoutlets" : 0,
					"patching_rect" : [ 239.0, 346.0, 49.0, 22.0 ],
					"text" : "pgmout"
				}

			}
, 			{
				"box" : 				{
					"id" : "obj-8",
					"maxclass" : "newobj",
					"numinlets" : 2,
					"numoutlets" : 1,
					"outlettype" : [ "bang" ],
					"patching_rect" : [ 477.0, 156.0, 119.0, 22.0 ],
					"text" : "metro 300 @active 1"
				}

			}
, 			{
				"box" : 				{
					"id" : "obj-7",
					"maxclass" : "newobj",
					"numinlets" : 3,
					"numoutlets" : 2,
					"outlettype" : [ "float", "float" ],
					"patching_rect" : [ 460.0, 271.0, 108.0, 22.0 ],
					"text" : "makenote 100 500"
				}

			}
, 			{
				"box" : 				{
					"id" : "obj-6",
					"maxclass" : "newobj",
					"numinlets" : 2,
					"numoutlets" : 1,
					"outlettype" : [ "int" ],
					"patching_rect" : [ 460.0, 242.0, 32.0, 22.0 ],
					"text" : "+ 50"
				}

			}
, 			{
				"box" : 				{
					"id" : "obj-5",
					"maxclass" : "newobj",
					"numinlets" : 2,
					"numoutlets" : 1,
					"outlettype" : [ "" ],
					"patching_rect" : [ 460.0, 209.0, 66.0, 22.0 ],
					"text" : "random 20"
				}

			}
, 			{
				"box" : 				{
					"id" : "obj-4",
					"maxclass" : "gain~",
					"multichannelvariant" : 0,
					"numinlets" : 1,
					"numoutlets" : 2,
					"outlettype" : [ "signal", "" ],
					"parameter_enable" : 0,
					"patching_rect" : [ 93.0, 214.0, 22.0, 140.0 ]
				}

			}
, 			{
				"box" : 				{
					"id" : "obj-3",
					"maxclass" : "newobj",
					"numinlets" : 2,
					"numoutlets" : 0,
					"patching_rect" : [ 82.0, 395.0, 55.0, 22.0 ],
					"text" : "dac~ 1 2"
				}

			}
, 			{
				"box" : 				{
					"id" : "obj-2",
					"maxclass" : "newobj",
					"numinlets" : 1,
					"numoutlets" : 1,
					"outlettype" : [ "signal" ],
					"patching_rect" : [ 101.0, 178.0, 45.0, 22.0 ],
					"text" : "adc~ 1"
				}

			}
 ],
		"lines" : [ 			{
				"patchline" : 				{
					"destination" : [ "obj-25", 0 ],
					"source" : [ "obj-1", 4 ]
				}

			}
, 			{
				"patchline" : 				{
					"destination" : [ "obj-41", 0 ],
					"order" : 0,
					"source" : [ "obj-1", 3 ]
				}

			}
, 			{
				"patchline" : 				{
					"destination" : [ "obj-43", 0 ],
					"order" : 1,
					"source" : [ "obj-1", 3 ]
				}

			}
, 			{
				"patchline" : 				{
					"destination" : [ "obj-47", 0 ],
					"source" : [ "obj-1", 2 ]
				}

			}
, 			{
				"patchline" : 				{
					"destination" : [ "obj-49", 0 ],
					"source" : [ "obj-1", 1 ]
				}

			}
, 			{
				"patchline" : 				{
					"destination" : [ "obj-9", 0 ],
					"source" : [ "obj-1", 0 ]
				}

			}
, 			{
				"patchline" : 				{
					"destination" : [ "obj-10", 0 ],
					"source" : [ "obj-11", 0 ]
				}

			}
, 			{
				"patchline" : 				{
					"destination" : [ "obj-11", 0 ],
					"source" : [ "obj-12", 0 ]
				}

			}
, 			{
				"patchline" : 				{
					"destination" : [ "obj-8", 0 ],
					"source" : [ "obj-13", 0 ]
				}

			}
, 			{
				"patchline" : 				{
					"destination" : [ "obj-11", 6 ],
					"source" : [ "obj-16", 0 ]
				}

			}
, 			{
				"patchline" : 				{
					"destination" : [ "obj-1", 0 ],
					"source" : [ "obj-18", 0 ]
				}

			}
, 			{
				"patchline" : 				{
					"destination" : [ "obj-4", 0 ],
					"source" : [ "obj-2", 0 ]
				}

			}
, 			{
				"patchline" : 				{
					"destination" : [ "obj-23", 0 ],
					"source" : [ "obj-21", 1 ]
				}

			}
, 			{
				"patchline" : 				{
					"destination" : [ "obj-19", 2 ],
					"order" : 1,
					"source" : [ "obj-25", 0 ]
				}

			}
, 			{
				"patchline" : 				{
					"destination" : [ "obj-28", 2 ],
					"order" : 0,
					"source" : [ "obj-25", 0 ]
				}

			}
, 			{
				"patchline" : 				{
					"destination" : [ "obj-9", 1 ],
					"order" : 2,
					"source" : [ "obj-25", 0 ]
				}

			}
, 			{
				"patchline" : 				{
					"destination" : [ "obj-8", 1 ],
					"source" : [ "obj-26", 0 ]
				}

			}
, 			{
				"patchline" : 				{
					"destination" : [ "obj-6", 1 ],
					"source" : [ "obj-29", 0 ]
				}

			}
, 			{
				"patchline" : 				{
					"destination" : [ "obj-3", 1 ],
					"order" : 0,
					"source" : [ "obj-4", 0 ]
				}

			}
, 			{
				"patchline" : 				{
					"destination" : [ "obj-3", 0 ],
					"order" : 1,
					"source" : [ "obj-4", 0 ]
				}

			}
, 			{
				"patchline" : 				{
					"destination" : [ "obj-28", 1 ],
					"source" : [ "obj-41", 0 ]
				}

			}
, 			{
				"patchline" : 				{
					"destination" : [ "obj-19", 1 ],
					"source" : [ "obj-43", 0 ]
				}

			}
, 			{
				"patchline" : 				{
					"destination" : [ "obj-19", 0 ],
					"source" : [ "obj-47", 0 ]
				}

			}
, 			{
				"patchline" : 				{
					"destination" : [ "obj-28", 0 ],
					"source" : [ "obj-49", 0 ]
				}

			}
, 			{
				"patchline" : 				{
					"destination" : [ "obj-6", 0 ],
					"source" : [ "obj-5", 0 ]
				}

			}
, 			{
				"patchline" : 				{
					"destination" : [ "obj-7", 0 ],
					"source" : [ "obj-6", 0 ]
				}

			}
, 			{
				"patchline" : 				{
					"destination" : [ "obj-12", 1 ],
					"source" : [ "obj-7", 1 ]
				}

			}
, 			{
				"patchline" : 				{
					"destination" : [ "obj-12", 0 ],
					"source" : [ "obj-7", 0 ]
				}

			}
, 			{
				"patchline" : 				{
					"destination" : [ "obj-5", 0 ],
					"source" : [ "obj-8", 0 ]
				}

			}
 ],
		"parameters" : 		{
			"obj-52" : [ "rnbo~", "rnbo~", 0 ],
			"parameterbanks" : 			{
				"0" : 				{
					"index" : 0,
					"name" : "",
					"parameters" : [ "-", "-", "-", "-", "-", "-", "-", "-" ]
				}

			}
,
			"inherited_shortname" : 1
		}
,
		"dependency_cache" : [ 			{
				"name" : "untitled.maxsnap",
				"bootpath" : "~/Documents/Max 8/Snapshots",
				"patcherrelativepath" : "../../Documents/Max 8/Snapshots",
				"type" : "mx@s",
				"implicit" : 1
			}
 ],
		"autosave" : 0
	}

}
