{
	"patcher" : 	{
		"fileversion" : 1,
		"appversion" : 		{
			"major" : 9,
			"minor" : 0,
			"revision" : 3,
			"architecture" : "x64",
			"modernui" : 1
		}
,
		"classnamespace" : "rnbo",
		"rect" : [ 59.0, 119.0, 1000.0, 755.0 ],
		"default_fontname" : "Lato",
		"gridsize" : [ 15.0, 15.0 ],
		"title" : "kill_all_notes",
		"boxes" : [ 			{
				"box" : 				{
					"id" : "obj-22",
					"linecount" : 3,
					"maxclass" : "comment",
					"numinlets" : 1,
					"numoutlets" : 0,
					"patching_rect" : [ 216.0, 176.0, 114.0, 50.0 ],
					"text" : "\"note off\" message for all 128 notes on all 16 channels"
				}

			}
, 			{
				"box" : 				{
					"id" : "obj-55",
					"maxclass" : "newobj",
					"numinlets" : 5,
					"numoutlets" : 1,
					"outlettype" : [ "" ],
					"patching_rect" : [ 164.0, 314.0, 83.0, 23.0 ],
					"rnbo_classname" : "noteout",
					"rnbo_serial" : 1,
					"rnbo_uniqueid" : "noteout_obj-55",
					"text" : "noteout"
				}

			}
, 			{
				"box" : 				{
					"id" : "obj-56",
					"maxclass" : "newobj",
					"numinlets" : 1,
					"numoutlets" : 2,
					"outlettype" : [ "", "" ],
					"patching_rect" : [ 164.0, 282.0, 35.0, 23.0 ],
					"rnbo_classname" : "t",
					"rnbo_serial" : 1,
					"rnbo_uniqueid" : "t_obj-56",
					"rnboinfo" : 					{
						"needsInstanceInfo" : 1,
						"argnames" : 						{
							"out1" : 							{
								"attrOrProp" : 1,
								"digest" : "Output order 2 (number).",
								"defaultarg" : 1,
								"isalias" : 0,
								"aliases" : [  ],
								"attachable" : 0,
								"isparam" : 0,
								"deprecated" : 0,
								"outlet" : 1,
								"type" : "number"
							}
,
							"out2" : 							{
								"attrOrProp" : 1,
								"digest" : "Output order 1 (number).",
								"defaultarg" : 2,
								"isalias" : 0,
								"aliases" : [  ],
								"attachable" : 0,
								"isparam" : 0,
								"deprecated" : 0,
								"outlet" : 1,
								"type" : "number"
							}
,
							"triggers" : 							{
								"attrOrProp" : 2,
								"digest" : "The number of arguments determines the number of outlets. \t\t\t\t\t\tEach outlet sends out either a whole number, float, bang or list, \t\t\t\t\t\tas identified by symbol arguments (i, f, b, l). \t\t\t\t\t\tIf there are no arguments, there are two outlets, both of which send a float.",
								"defaultarg" : 1,
								"isalias" : 0,
								"aliases" : [  ],
								"settable" : 1,
								"attachable" : 0,
								"isparam" : 0,
								"deprecated" : 0,
								"type" : "list"
							}

						}
,
						"inputs" : [ 							{
								"name" : "input",
								"type" : [ "bang", "number", "list" ],
								"digest" : "input to distribute",
								"hot" : 1,
								"docked" : 0
							}
 ],
						"outputs" : [ 							{
								"name" : "out1",
								"type" : "number",
								"digest" : "Output order 2 (number).",
								"defaultarg" : 1,
								"docked" : 0
							}
, 							{
								"name" : "out2",
								"type" : "number",
								"digest" : "Output order 1 (number).",
								"defaultarg" : 2,
								"docked" : 0
							}
 ],
						"helpname" : "trigger",
						"aliasOf" : "trigger",
						"classname" : "t",
						"operator" : 0,
						"versionId" : -1133428571,
						"changesPatcherIO" : 0
					}
,
					"text" : "t i 0"
				}

			}
, 			{
				"box" : 				{
					"id" : "obj-12",
					"maxclass" : "newobj",
					"numinlets" : 2,
					"numoutlets" : 3,
					"outlettype" : [ "", "", "" ],
					"patching_rect" : [ 116.0, 250.0, 67.0, 23.0 ],
					"rnbo_classname" : "uzi",
					"rnbo_serial" : 1,
					"rnbo_uniqueid" : "uzi_obj-12",
					"text" : "uzi 127 0"
				}

			}
, 			{
				"box" : 				{
					"id" : "obj-57",
					"maxclass" : "newobj",
					"numinlets" : 2,
					"numoutlets" : 3,
					"outlettype" : [ "", "", "" ],
					"patching_rect" : [ 116.0, 210.0, 51.0, 23.0 ],
					"rnbo_classname" : "uzi",
					"rnbo_serial" : 2,
					"rnbo_uniqueid" : "uzi_obj-57",
					"text" : "uzi 16"
				}

			}
, 			{
				"box" : 				{
					"id" : "obj-10",
					"maxclass" : "button",
					"numinlets" : 1,
					"numoutlets" : 1,
					"outlettype" : [ "bang" ],
					"parameter_enable" : 0,
					"patching_rect" : [ 116.0, 178.0, 24.0, 24.0 ],
					"rnbo_classname" : "button",
					"rnbo_serial" : 1,
					"rnbo_uniqueid" : "button_obj-10"
				}

			}
, 			{
				"box" : 				{
					"id" : "obj-3",
					"maxclass" : "newobj",
					"numinlets" : 1,
					"numoutlets" : 3,
					"outlettype" : [ "", "", "" ],
					"patching_rect" : [ 116.0, 111.0, 61.0, 23.0 ],
					"rnbo_classname" : "change",
					"rnbo_extra_attributes" : 					{
						"mode" : "default"
					}
,
					"rnbo_serial" : 1,
					"rnbo_uniqueid" : "change_obj-3",
					"text" : "change -1"
				}

			}
, 			{
				"box" : 				{
					"id" : "obj-2",
					"maxclass" : "newobj",
					"numinlets" : 2,
					"numoutlets" : 2,
					"outlettype" : [ "", "" ],
					"patching_rect" : [ 116.0, 146.0, 40.0, 23.0 ],
					"rnbo_classname" : "sel",
					"rnbo_serial" : 1,
					"rnbo_uniqueid" : "sel_obj-2",
					"rnboinfo" : 					{
						"needsInstanceInfo" : 1,
						"argnames" : 						{
							"input" : 							{
								"attrOrProp" : 1,
								"digest" : "Number to test",
								"isalias" : 0,
								"aliases" : [  ],
								"attachable" : 0,
								"isparam" : 0,
								"deprecated" : 0,
								"inlet" : 1,
								"type" : "number"
							}
,
							"test1" : 							{
								"attrOrProp" : 1,
								"digest" : "Set Value (1) to Match",
								"defaultarg" : 1,
								"isalias" : 0,
								"aliases" : [  ],
								"settable" : 1,
								"attachable" : 0,
								"isparam" : 0,
								"deprecated" : 0,
								"inlet" : 1,
								"type" : "number",
								"defaultValue" : "64"
							}
,
							"match1" : 							{
								"attrOrProp" : 1,
								"digest" : "Bang if input matches 64",
								"isalias" : 0,
								"aliases" : [  ],
								"attachable" : 0,
								"isparam" : 0,
								"deprecated" : 0,
								"outlet" : 1,
								"type" : "bang"
							}
,
							"nomatch" : 							{
								"attrOrProp" : 1,
								"digest" : "Input if Input Doesn't Match",
								"isalias" : 0,
								"aliases" : [  ],
								"attachable" : 0,
								"isparam" : 0,
								"deprecated" : 0,
								"outlet" : 1,
								"type" : "number",
								"defaultValue" : "0"
							}

						}
,
						"inputs" : [ 							{
								"name" : "input",
								"type" : [ "number", "bang" ],
								"digest" : "Number to test",
								"hot" : 1,
								"docked" : 0
							}
, 							{
								"name" : "test1",
								"type" : "number",
								"digest" : "Set Value (1) to Match",
								"defaultarg" : 1,
								"docked" : 0
							}
 ],
						"outputs" : [ 							{
								"name" : "match1",
								"type" : "bang",
								"digest" : "Bang if input matches 64",
								"docked" : 0
							}
, 							{
								"name" : "nomatch",
								"type" : [ "number", "bang" ],
								"digest" : "Input if Input Doesn't Match",
								"docked" : 0
							}
 ],
						"helpname" : "select",
						"aliasOf" : "select",
						"classname" : "sel",
						"operator" : 0,
						"versionId" : 902197102,
						"changesPatcherIO" : 0
					}
,
					"text" : "sel 64"
				}

			}
, 			{
				"box" : 				{
					"id" : "obj-1",
					"maxclass" : "newobj",
					"numinlets" : 3,
					"numoutlets" : 3,
					"outlettype" : [ "", "", "" ],
					"patching_rect" : [ 35.0, 78.0, 182.0, 23.0 ],
					"rnbo_classname" : "ctlin",
					"rnbo_serial" : 1,
					"rnbo_uniqueid" : "ctlin_obj-1",
					"text" : "ctlin"
				}

			}
 ],
		"lines" : [ 			{
				"patchline" : 				{
					"destination" : [ "obj-3", 0 ],
					"source" : [ "obj-1", 1 ]
				}

			}
, 			{
				"patchline" : 				{
					"destination" : [ "obj-57", 0 ],
					"source" : [ "obj-10", 0 ]
				}

			}
, 			{
				"patchline" : 				{
					"destination" : [ "obj-56", 0 ],
					"source" : [ "obj-12", 2 ]
				}

			}
, 			{
				"patchline" : 				{
					"destination" : [ "obj-10", 0 ],
					"source" : [ "obj-2", 0 ]
				}

			}
, 			{
				"patchline" : 				{
					"destination" : [ "obj-2", 0 ],
					"source" : [ "obj-3", 0 ]
				}

			}
, 			{
				"patchline" : 				{
					"destination" : [ "obj-55", 1 ],
					"source" : [ "obj-56", 1 ]
				}

			}
, 			{
				"patchline" : 				{
					"destination" : [ "obj-55", 0 ],
					"source" : [ "obj-56", 0 ]
				}

			}
, 			{
				"patchline" : 				{
					"destination" : [ "obj-12", 0 ],
					"source" : [ "obj-57", 0 ]
				}

			}
, 			{
				"patchline" : 				{
					"destination" : [ "obj-55", 2 ],
					"midpoints" : [ 157.5, 242.0, 205.5, 242.0 ],
					"source" : [ "obj-57", 2 ]
				}

			}
 ],
		"originid" : "pat-507"
	}

}
